custom-analysis
version=1
nRows=4
nColumns=98
inDegrees=no

This file contains tibia displacement and acting force.

Units are S.I. units (seconds, meters, Newtons, ...)
Angles are in degrees.

endheader
time	APT	SIT	knee_angle	aACL_R_force	pACL_R_force	aPCL_R_force	pPCL_R_force	aMCL_R_force	mMCL_R_force	pMCL_R_force	aLCL_R_force	mLCL_R_force	pLCL_R_force	aPCL_L_force	pPCL_L_force	aMCL_L_force	aLCL_L_force	aACL_R_length	pACL_R_length	aPCL_R_length	pPCL_R_length	aMCL_R_length	mMCL_R_length	pMCL_R_length	aLCL_R_length	mLCL_R_length	pLCL_R_length	aPCL_L_length	pPCL_L_length	aMCL_L_length	aLCL_L_length	aACL_R_strain	pACL_R_strain	aPCL_R_strain	pPCL_R_strain	aMCL_R_strain	mMCL_R_strain	pMCL_R_strain	aLCL_R_strain	mLCL_R_strain	pLCL_R_strain	aPCL_L_strain	pPCL_L_strain	aMCL_L_strain	aLCL_L_strain	femur_lat_meniscii_r.femur_lat_r.force.X	femur_lat_meniscii_r.femur_lat_r.force.Y	femur_lat_meniscii_r.femur_lat_r.force.Z	femur_lat_meniscii_r.femur_lat_r.torque.X	femur_lat_meniscii_r.femur_lat_r.torque.Y	femur_lat_meniscii_r.femur_lat_r.torque.Z	femur_lat_meniscii_r.meniscus_lat_r.force.X	femur_lat_meniscii_r.meniscus_lat_r.force.Y	femur_lat_meniscii_r.meniscus_lat_r.force.Z	femur_lat_meniscii_r.meniscus_lat_r.torque.X	femur_lat_meniscii_r.meniscus_lat_r.torque.Y	femur_lat_meniscii_r.meniscus_lat_r.torque.Z	femur_med_meniscii_r.femur_med_r.force.X	femur_med_meniscii_r.femur_med_r.force.Y	femur_med_meniscii_r.femur_med_r.force.Z	femur_med_meniscii_r.femur_med_r.torque.X	femur_med_meniscii_r.femur_med_r.torque.Y	femur_med_meniscii_r.femur_med_r.torque.Z	femur_med_meniscii_r.meniscus_med_r.force.X	femur_med_meniscii_r.meniscus_med_r.force.Y	femur_med_meniscii_r.meniscus_med_r.force.Z	femur_med_meniscii_r.meniscus_med_r.torque.X	femur_med_meniscii_r.meniscus_med_r.torque.Y	femur_med_meniscii_r.meniscus_med_r.torque.Z	femur_med_tibia_r.tibia_upper_r.force.X	femur_med_tibia_r.tibia_upper_r.force.Y	femur_med_tibia_r.tibia_upper_r.force.Z	femur_med_tibia_r.tibia_upper_r.torque.X	femur_med_tibia_r.tibia_upper_r.torque.Y	femur_med_tibia_r.tibia_upper_r.torque.Z	femur_med_tibia_r.femur_med_r.force.X	femur_med_tibia_r.femur_med_r.force.Y	femur_med_tibia_r.femur_med_r.force.Z	femur_med_tibia_r.femur_med_r.torque.X	femur_med_tibia_r.femur_med_r.torque.Y	femur_med_tibia_r.femur_med_r.torque.Z	femur_lat_tibia_r.tibia_upper_r.force.X	femur_lat_tibia_r.tibia_upper_r.force.Y	femur_lat_tibia_r.tibia_upper_r.force.Z	femur_lat_tibia_r.tibia_upper_r.torque.X	femur_lat_tibia_r.tibia_upper_r.torque.Y	femur_lat_tibia_r.tibia_upper_r.torque.Z	femur_lat_tibia_r.femur_lat_r.force.X	femur_lat_tibia_r.femur_lat_r.force.Y	femur_lat_tibia_r.femur_lat_r.force.Z	femur_lat_tibia_r.femur_lat_r.torque.X	femur_lat_tibia_r.femur_lat_r.torque.Y	femur_lat_tibia_r.femur_lat_r.torque.Z	femur_lat_meniscii_force_r	femur_med_meniscii_force_r	femur_lat_tibia_force_r	femur_med_tibia_force_r
      0.07608450	      0.00880906	      0.00426493	     15.25559590	     93.66566158	     78.45248911	      0.00000000	      0.00000000	      0.00000000	     -5.09091187	    -23.57413079	      0.00000000	      0.00000000	      0.00000000	      0.00000000	      0.00000000	      0.00000001	      0.00000000	      0.03422953	      0.02754419	      0.02736284	      0.02738826	      0.05645270	      0.05999390	      0.06088167	      0.05280086	      0.05065465	      0.04796197	      0.01525851	      0.01651186	      0.06550154	      0.04489616	      0.10398254	      0.09918675	     -0.12003289	     -0.08363073	     -0.05954492	      0.00335149	      0.03667192	     -0.05674345	     -0.10056985	     -0.08369323	      0.00000079	     -0.32847694	      0.00000060	     -0.00000086	     29.41033110	    139.22046062	     12.79430530	     -8.61967940	      0.69636486	     12.44328668	    -29.41033110	   -139.22046062	    -12.79430530	      4.16871604	     -0.90342949	      0.04132541	     15.08875467	     61.65522903	      0.66445806	      0.99502649	     -0.28145283	      6.07693031	    -15.08875467	    -61.65522903	     -0.66445806	     -1.04951760	      0.22667865	      0.24298275	    -47.51485822	   -731.84734707	     90.52317179	    -15.55215389	      1.26639664	      2.85414783	     47.51485822	    731.84734707	    -90.52317179	     52.61692407	     -0.63104502	     21.73743084	    -14.63285997	   -460.96241548	   -100.36743572	     15.52671241	     -0.91231038	      1.95672824	     14.63285997	    460.96241548	    100.36743572	    -52.49199147	     -0.01064055	      7.67142888	    142.86706576	     63.47817963	    471.98950331	    738.95375079
      0.07728527	      0.00899921	      0.00436832	     15.67369802	     94.05128264	     77.65979983	      0.00000000	      0.00000000	      0.00000000	     -4.39977066	    -23.78160700	      0.00000000	      0.00000000	      0.00000000	      0.00000000	      0.00000000	      0.00000001	      0.00000000	      0.03426696	      0.02755644	      0.02738140	      0.02738158	      0.05649237	      0.05998599	      0.06082640	      0.05278014	      0.05060885	      0.04788729	      0.01525851	      0.01651186	      0.06550154	      0.04489616	      0.10518988	      0.09967539	     -0.11943597	     -0.08385443	     -0.05888392	      0.00321929	      0.03573080	     -0.05711368	     -0.10138301	     -0.08512004	      0.00000079	     -0.32847694	      0.00000060	     -0.00000086	     25.01989098	    141.07153826	     13.37079660	     -8.90488141	      0.58764478	     10.58111732	    -25.01989098	   -141.07153826	    -13.37079660	      4.23723304	     -0.78824215	      0.26959246	     13.98860607	     61.58605826	      0.43118548	      1.08657218	     -0.25684181	      5.60815620	    -13.98860607	    -61.58605826	     -0.43118548	     -1.05255539	      0.20772373	      0.30377973	    -48.36587662	   -731.77608871	     87.19083437	    -15.40699259	      1.30430495	      3.12390781	     48.36587662	    731.77608871	    -87.19083437	     51.18871111	     -0.68057863	     21.95948771	     -3.28367710	   -448.04853576	    -97.94142296	     15.10551872	     -0.64850471	      2.49851954	      3.28367710	    448.04853576	     97.94142296	    -51.18989320	     -0.23853190	      2.76916875	    143.89562903	     63.15623162	    458.64015880	    738.53757090
      0.07848604	      0.00918765	      0.00447347	     16.09580985	     95.88934937	     78.27814573	      0.00000000	      0.00000000	      0.00000000	     -3.09521037	    -23.29287475	      0.00000000	      0.00000000	      0.00000000	      0.00000000	      0.00000000	      0.00000001	      0.00000000	      0.03430140	      0.02756548	      0.02740221	      0.02737649	      0.05653430	      0.05997963	      0.06077205	      0.05275854	      0.05056155	      0.04781073	      0.01525851	      0.01651186	      0.06550154	      0.04489616	      0.10630058	      0.10003621	     -0.11876683	     -0.08402462	     -0.05818544	      0.00311291	      0.03480536	     -0.05749950	     -0.10222286	     -0.08658266	      0.00000079	     -0.32847694	      0.00000060	     -0.00000086	     24.23268179	    142.32474683	     13.31391164	     -8.91327002	      0.56834421	     10.24510964	    -24.23268179	   -142.32474683	    -13.31391164	      4.26989313	     -0.76866558	      0.34773244	     15.13775794	     61.95947036	     -0.12034273	      1.31699607	     -0.27739984	      6.07802265	    -15.13775794	    -61.95947036	      0.12034273	     -1.07096053	      0.22966141	      0.29194236	    -58.69879229	   -724.10092897	     85.95620709	    -15.22246735	      1.50398345	      2.94914379	     58.69879229	    724.10092897	    -85.95620709	     50.50173927	     -0.90486502	     26.18979737	     -1.45187828	   -436.03273204	    -94.77731261	     14.67512945	     -0.61559349	      2.65160837	      1.45187828	    436.03273204	     94.77731261	    -49.59191119	     -0.25852229	      1.90473530	    144.98557401	     63.78198935	    446.21675265	    731.54369185
      0.07968681	      0.00937686	      0.00458008	     16.52247502	     96.53078997	     77.67172376	      0.00000000	      0.00000000	      0.00000000	     -2.17121132	    -23.19128635	      0.00000000	      0.00000000	      0.00000000	      0.00000000	      0.00000000	      0.00000001	      0.00000000	      0.03433518	      0.02757360	      0.02742442	      0.02737237	      0.05657887	      0.05997522	      0.06071910	      0.05273604	      0.05051286	      0.04773242	      0.01525851	      0.01651186	      0.06550154	      0.04489616	      0.10739000	      0.10036026	     -0.11805272	     -0.08416241	     -0.05744302	      0.00303918	      0.03390369	     -0.05790149	     -0.10308752	     -0.08807880	      0.00000079	     -0.32847694	      0.00000060	     -0.00000086	     21.43160218	    144.31993825	     13.88076512	     -9.20151966	      0.50183527	      9.05756920	    -21.43160218	   -144.31993825	    -13.88076512	      4.34596642	     -0.70131721	      0.51333741	     14.59951162	     62.32213138	      0.12563814	      1.22240844	     -0.27082394	      5.84503193	    -14.59951162	    -62.32213138	     -0.12563814	     -1.06991129	      0.22263851	      0.33648860	    -58.45848698	   -718.07427408	     82.58921628	    -14.97027158	      1.51793569	      3.22207811	     58.45848698	    718.07427408	    -82.58921628	     48.93687653	     -0.92979849	     25.93381698	      5.45783352	   -426.84327731	    -92.63650919	     14.35959101	     -0.46071070	      3.02181374	     -5.45783352	    426.84327731	     92.63650919	    -48.49094820	     -0.39251264	     -1.10130333	    146.56136527	     64.00944918	    436.81402698	    725.16828147
